<svg xmlns="http://www.w3.org/2000/svg" xmlns:xlink="http://www.w3.org/1999/xlink" xmlns:v="http://vecta.io" width="2169" height="896" viewBox="0 0 2169 896"><style><![CDATA[svg{stroke:#000;stroke-linecap:round;stroke-linejoin:round;fill:#fff;fill-rule:evenodd;font-family:Roboto;font-size:14px;text-anchor:middle;}svg text{paint-order:stroke;white-space:pre;}svg .Text\.cls{stroke:none;}]]></style><rect x="0" y="0" width="2170" height="905" fill="#434963" transform="translate(-0.5 -0.5)"/><rect x="0" y="0" width="652.2922" height="1481.6821" stroke-opacity="0" fill="#4b516c" transform="translate(315.4824 -281.0012) rotate(30 326.1462 740.8412)"/><rect x="0" y="0" width="21.6749" height="1443.179" stroke-opacity="0" fill="#3b4363" transform="translate(288.4824 -342.423) rotate(30 10.8374 721.5895)"/><rect x="0" y="0" width="26.005" height="1443.179" stroke-opacity="0" fill="#3b4363" transform="translate(183.5527 -365.6734) rotate(30 13.0025 721.5895)"/><rect x="0" y="0" width="22.8008" height="1443.179" stroke-opacity="0" fill="#3b4363" transform="translate(257.4318 -352.7045) rotate(30 11.4004 721.5895)"/><rect x="0" y="0" width="21.1945" height="1443.179" stroke-opacity="0" fill="#3b4363" transform="translate(239.4296 -386.876) rotate(30 10.5973 721.5895)"/><rect x="0" y="0" width="45.9833" height="1481.682" stroke-opacity="0" fill="#4b516c" transform="translate(1081.8402 -308.2581) rotate(30 22.9917 740.841)"/><rect x="0" y="0" width="45.9833" height="1481.682" stroke-opacity="0" fill="#50556e" transform="translate(1066.5083 -128.258) rotate(30 22.9917 740.841)"/><rect x="0" y="0" width="652.2922" height="1481.6821" stroke-opacity="0" fill="#4b516c" transform="translate(1681.2252 -166.6808) rotate(30 326.1461 740.841)"/><rect x="0" y="0" width="45.9833" height="1481.682" stroke-opacity="0" fill="#4b516c" transform="translate(1546.8402 -158.258) rotate(30 22.9917 740.841)"/><rect x="0" y="0" width="21.6749" height="1443.179" stroke-opacity="0" fill="#3b4363" transform="translate(2223.4823 -12.423) rotate(30 10.8374 721.5895)"/><rect x="0" y="0" width="26.005" height="1443.179" stroke-opacity="0" fill="#3b4363" transform="translate(2118.5527 -35.6734) rotate(30 13.0025 721.5895)"/><rect x="0" y="0" width="22.8008" height="1443.179" stroke-opacity="0" fill="#3b4363" transform="translate(2192.4318 -22.7045) rotate(30 11.4004 721.5895)"/><rect x="0" y="0" width="21.1945" height="1443.179" stroke-opacity="0" fill="#3b4363" transform="translate(2174.4296 -56.876) rotate(30 10.5973 721.5895)"/><rect x="0" y="0" width="21.6749" height="1443.179" stroke-opacity="0" fill="#3b4363" transform="translate(2198.4824 93.2441) rotate(30 10.8374 721.5895)"/><rect x="0" y="0" width="21.6749" height="1443.179" stroke-opacity="0" fill="#3b4363" transform="translate(2171.1625 -251.7559) rotate(30 10.8374 721.5895)"/><rect x="0" y="0" width="21.6749" height="1443.179" stroke-opacity="0" fill="#3b4363" transform="translate(2146.1626 -146.0889) rotate(30 10.8374 721.5895)"/></svg>