<svg xmlns="http://www.w3.org/2000/svg" xmlns:xlink="http://www.w3.org/1999/xlink" xmlns:v="http://vecta.io" width="2169" height="896" viewBox="0 0 2169 896"><style><![CDATA[svg{stroke:#000;stroke-linecap:round;stroke-linejoin:round;fill:#fff;fill-rule:evenodd;font-family:Roboto;font-size:14px;text-anchor:middle;}svg text{paint-order:stroke;white-space:pre;}svg .Text\.cls{stroke:none;}]]></style><rect x="0" y="0" width="2170" height="900" fill="#e48717" stroke-opacity="0" transform="translate(-0.5 -0.5)"/><rect x="0" y="0" width="60.404" height="1341.4186" stroke-opacity="0" fill="#f2910c" transform="translate(1932.7876 -172.1615) rotate(30 30.202 670.7093)"/><rect fill="#db7614" height="1443.179" stroke-opacity="0" width="15.4904" x="0" y="0" transform="translate(1970.1467 -156.1342) rotate(30 7.7452 721.5895)"/><rect fill="#db7614" height="1443.179" stroke-opacity="0" width="26.005" x="0" y="0" transform="translate(1734.4423 -315.6734) rotate(30 13.0025 721.5895)"/><rect fill="#f2910c" height="1443.179" stroke-opacity="0" width="26.005" x="0" y="0" transform="translate(1594.4423 -150.6734) rotate(30 13.0025 721.5895)"/><rect fill="#db7614" height="1443.179" stroke-opacity="0" width="26.005" x="0" y="0" transform="translate(1544.4423 -140.6734) rotate(30 13.0025 721.5895)"/><rect fill="#f2910c" height="1443.179" stroke-opacity="0" width="26.005" x="0" y="0" transform="translate(1504.4423 -145.6734) rotate(30 13.0025 721.5895)"/><rect fill="#db7614" height="1443.179" stroke-opacity="0" width="26.005" x="0" y="0" transform="translate(1464.4423 -150.6734) rotate(30 13.0025 721.5895)"/><rect fill="#db7614" height="1443.179" stroke-opacity="0" width="26.005" x="0" y="0" transform="translate(114.4423 449.3266) rotate(30 13.0025 721.5895)"/><rect fill="#db7614" height="1443.179" stroke-opacity="0" width="26.005" x="0" y="0" transform="translate(74.4423 449.3266) rotate(30 13.0025 721.5895)"/><rect fill="#db7614" height="1443.179" stroke-opacity="0" width="26.005" x="0" y="0" transform="translate(34.4423 449.3266) rotate(30 13.0025 721.5895)"/><rect fill="#db7614" height="1443.179" stroke-opacity="0" width="26.005" x="0" y="0" transform="translate(-5.5577 449.3266) rotate(30 13.0025 721.5895)"/><rect fill="#db7614" height="1443.179" stroke-opacity="0" width="26.005" x="0" y="0" transform="translate(-45.5577 449.3266) rotate(30 13.0025 721.5895)"/><rect fill="#db7614" height="1443.179" stroke-opacity="0" width="26.005" x="0" y="0" transform="translate(154.4423 449.3266) rotate(30 13.0025 721.5895)"/><rect fill="#db7614" height="1443.179" stroke-opacity="0" width="26.005" x="0" y="0" transform="translate(194.4423 449.3266) rotate(30 13.0025 721.5895)"/><rect fill="#db7614" height="1443.179" stroke-opacity="0" width="26.005" x="0" y="0" transform="translate(539.4423 -935.6734) rotate(30 13.0025 721.5895)"/><rect fill="#db7614" height="1443.179" stroke-opacity="0" width="26.005" x="0" y="0" transform="translate(499.4423 -935.6734) rotate(30 13.0025 721.5895)"/><rect fill="#db7614" height="1443.179" stroke-opacity="0" width="26.005" x="0" y="0" transform="translate(459.4423 -935.6734) rotate(30 13.0025 721.5895)"/><rect fill="#db7614" height="1443.179" stroke-opacity="0" width="26.005" x="0" y="0" transform="translate(419.4423 -935.6734) rotate(30 13.0025 721.5895)"/><rect fill="#db7614" height="1443.179" stroke-opacity="0" width="26.005" x="0" y="0" transform="translate(379.4423 -935.6734) rotate(30 13.0025 721.5895)"/><rect fill="#db7614" height="1443.179" stroke-opacity="0" width="26.005" x="0" y="0" transform="translate(579.4423 -935.6734) rotate(30 13.0025 721.5895)"/><rect fill="#db7614" height="1443.179" stroke-opacity="0" width="26.005" x="0" y="0" transform="translate(619.4423 -935.6734) rotate(30 13.0025 721.5895)"/><rect x="0" y="0" width="39.2769" height="1559.6313" stroke-opacity="0" fill="#f2910c" transform="translate(811.7767 -365.1563) rotate(30 19.6384 779.8157)"/><rect fill="#db7614" height="1443.179" stroke-opacity="0" width="15.4904" x="0" y="0" transform="translate(1929.2525 -43.3021) rotate(30 7.7452 721.5895)"/><rect fill="#db7614" height="1443.179" stroke-opacity="0" width="15.4904" x="0" y="0" transform="translate(1969.2571 -68.3021) rotate(30 7.7452 721.5895)"/><rect x="0" y="0" width="257.9353" height="1559.6313" stroke-opacity="0" fill="#f2910c" transform="translate(887.1294 -205.4917) rotate(30 128.9677 779.8157)"/><rect fill="#db7614" height="1443.179" stroke-opacity="0" width="26.005" x="0" y="0" transform="translate(839.485 -220.6734) rotate(30 13.0025 721.5895)"/><rect fill="#db7614" height="1443.179" stroke-opacity="0" width="15.4904" x="0" y="0" transform="translate(2099.2571 76.6979) rotate(30 7.7452 721.5895)"/><rect fill="#db7614" height="1443.179" stroke-opacity="0" width="15.4904" x="0" y="0" transform="translate(2084.2571 146.6979) rotate(30 7.7452 721.5895)"/><rect fill="#db7614" height="1443.179" stroke-opacity="0" width="15.4904" x="0" y="0" transform="translate(2094.2571 171.6979) rotate(30 7.7452 721.5895)"/></svg>