<svg xmlns="http://www.w3.org/2000/svg" xmlns:xlink="http://www.w3.org/1999/xlink" xmlns:v="http://vecta.io" width="2169" height="896" viewBox="0 0 2169 896"><style><![CDATA[svg{stroke:#000;stroke-linecap:round;stroke-linejoin:round;fill:#fff;fill-rule:evenodd;font-family:Roboto;font-size:14px;text-anchor:middle;}svg text{paint-order:stroke;white-space:pre;}svg .Text\.cls{stroke:none;}]]></style><rect x="0" y="0" width="2170" height="900" stroke-opacity="0" fill="#d9d9d9" transform="translate(-0.5 -0.5)"/><rect x="0" y="0" width="145.6954" height="1559.6313" stroke-opacity="0" fill="#e5e5e5" transform="translate(484.6481 -311.4649) rotate(30 72.8477 779.8157)"/><rect x="0" y="0" width="34.7304" height="1559.6313" stroke-opacity="0" fill="#e5e5e5" transform="translate(1933.1634 -354.6874) rotate(30 17.3652 779.8157)"/><rect x="0" y="0" width="7.4097" height="1559.6313" stroke-opacity="0" fill="#cbcbcb" transform="translate(8.9115 -523.1231) rotate(30 3.7049 779.8157)"/><rect x="0" y="0" width="7.4097" height="1559.6313" stroke-opacity="0" fill="#cbcbcb" transform="translate(32.6788 -592.5083) rotate(30 3.7049 779.8157)"/><rect x="0" y="0" width="7.4097" height="1559.6313" stroke-opacity="0" fill="#cbcbcb" transform="translate(-21.0886 -528.1231) rotate(30 3.7049 779.8157)"/><rect x="0" y="0" width="7.4097" height="1559.6313" stroke-opacity="0" fill="#cbcbcb" transform="translate(-6.0886 -583.1231) rotate(30 3.7049 779.8157)"/><rect x="0" y="0" width="7.4097" height="1559.6313" stroke-opacity="0" fill="#cbcbcb" transform="translate(-26.0886 -578.1231) rotate(30 3.7049 779.8157)"/><rect x="0" y="0" width="7.4097" height="1559.6313" stroke-opacity="0" fill="#cbcbcb" transform="translate(-16.0886 -623.1231) rotate(30 3.7049 779.8157)"/><rect x="0" y="0" width="7.4097" height="1559.6313" stroke-opacity="0" fill="#cbcbcb" transform="translate(-56.0886 -583.1231) rotate(30 3.7049 779.8157)"/><rect x="0" y="0" width="7.4097" height="1559.6313" stroke-opacity="0" fill="#cbcbcb" transform="translate(-6.0886 -698.1231) rotate(30 3.7049 779.8157)"/><rect x="0" y="0" width="7.4097" height="1559.6313" stroke-opacity="0" fill="#cbcbcb" transform="translate(-111.0886 -543.1231) rotate(30 3.7049 779.8157)"/><rect x="0" y="0" width="7.4097" height="1559.6313" stroke-opacity="0" fill="#cbcbcb" transform="translate(-66.0886 -648.1231) rotate(30 3.7049 779.8157)"/><rect x="0" y="0" width="7.4097" height="1559.6313" stroke-opacity="0" fill="#cbcbcb" transform="translate(-84.0886 -643.1231) rotate(30 3.7049 779.8157)"/><rect x="0" y="0" width="433.3295" height="1559.6313" stroke-opacity="0" fill="#d2d2d2" transform="translate(1865.3802 -121.6431) rotate(30 216.6648 779.8157)"/><rect x="0" y="0" width="7.1292" height="785.2762" stroke-opacity="0" fill="#e5e5e5" transform="translate(1511.5292 -211.3212) rotate(30 3.5646 392.6382)"/><rect x="0" y="0" width="7.1292" height="785.2762" stroke-opacity="0" fill="#e5e5e5" transform="translate(1491.5293 -209.955) rotate(30 3.5646 392.6381)"/><rect x="0" y="0" width="7.1292" height="785.2762" stroke-opacity="0" fill="#e5e5e5" transform="translate(1471.5293 -209.955) rotate(30 3.5646 392.6381)"/><rect x="0" y="0" width="7.1292" height="785.2762" stroke-opacity="0" fill="#e5e5e5" transform="translate(1450.3415 -209.955) rotate(30 3.5646 392.6381)"/><rect x="0" y="0" width="7.1292" height="785.2762" stroke-opacity="0" fill="#e5e5e5" transform="translate(1431.5293 -209.955) rotate(30 3.5646 392.6381)"/><rect x="0" y="0" width="7.1292" height="785.2762" stroke-opacity="0" fill="#e5e5e5" transform="translate(1410.3415 -209.955) rotate(30 3.5646 392.6381)"/><rect x="0" y="0" width="7.1292" height="785.2762" stroke-opacity="0" fill="#e5e5e5" transform="translate(1391.5293 -209.955) rotate(30 3.5646 392.6381)"/><rect x="0" y="0" width="7.1292" height="785.2762" stroke-opacity="0" fill="#e5e5e5" transform="translate(1375.3415 -209.955) rotate(30 3.5646 392.6381)"/><rect x="0" y="0" width="7.1292" height="785.2762" stroke-opacity="0" fill="#e5e5e5" transform="translate(1357.5293 -209.955) rotate(30 3.5646 392.6381)"/><rect x="0" y="0" width="7.1292" height="785.2762" stroke-opacity="0" fill="#e5e5e5" transform="translate(1340.3415 -209.955) rotate(30 3.5646 392.6381)"/><rect x="0" y="0" width="7.1292" height="785.2762" stroke-opacity="0" fill="#e5e5e5" transform="translate(1321.5293 -209.955) rotate(30 3.5646 392.6381)"/><rect x="0" y="0" width="7.1292" height="785.2762" stroke-opacity="0" fill="#e5e5e5" transform="translate(1305.3415 -209.955) rotate(30 3.5646 392.6381)"/><rect x="0" y="0" width="7.1292" height="785.2762" stroke-opacity="0" fill="#e5e5e5" transform="translate(1287.5293 -209.955) rotate(30 3.5646 392.6381)"/><rect x="0" y="0" width="7.1292" height="785.2762" stroke-opacity="0" fill="#e5e5e5" transform="translate(1270.3415 -209.955) rotate(30 3.5646 392.6381)"/><rect x="0" y="0" width="7.1292" height="785.2762" stroke-opacity="0" fill="#e5e5e5" transform="translate(1251.5293 -209.955) rotate(30 3.5646 392.6381)"/><rect x="0" y="0" width="7.4097" height="1559.6313" stroke-opacity="0" fill="#d2d2d2" transform="translate(716.5921 -132.5083) rotate(30 3.7049 779.8157)"/><rect x="0" y="0" width="7.4097" height="1559.6313" stroke-opacity="0" fill="#d2d2d2" transform="translate(740.3594 -201.8935) rotate(30 3.7049 779.8157)"/><rect x="0" y="0" width="7.4097" height="1559.6313" stroke-opacity="0" fill="#d2d2d2" transform="translate(686.592 -137.5083) rotate(30 3.7049 779.8157)"/><rect x="0" y="0" width="7.4097" height="1559.6313" stroke-opacity="0" fill="#d2d2d2" transform="translate(701.592 -192.5083) rotate(30 3.7049 779.8157)"/><rect x="0" y="0" width="7.4097" height="1559.6313" stroke-opacity="0" fill="#d2d2d2" transform="translate(681.592 -187.5083) rotate(30 3.7049 779.8157)"/><rect x="0" y="0" width="7.4097" height="1559.6313" stroke-opacity="0" fill="#d2d2d2" transform="translate(691.592 -232.5083) rotate(30 3.7049 779.8157)"/><rect x="0" y="0" width="7.4097" height="1559.6313" stroke-opacity="0" fill="#d2d2d2" transform="translate(651.592 -192.5083) rotate(30 3.7049 779.8157)"/><rect x="0" y="0" width="7.4097" height="1559.6313" stroke-opacity="0" fill="#d2d2d2" transform="translate(701.592 -307.5083) rotate(30 3.7049 779.8157)"/><rect x="0" y="0" width="7.4097" height="1559.6313" stroke-opacity="0" fill="#d2d2d2" transform="translate(596.592 -152.5083) rotate(30 3.7049 779.8157)"/><rect x="0" y="0" width="7.4097" height="1559.6313" stroke-opacity="0" fill="#d2d2d2" transform="translate(641.592 -257.5083) rotate(30 3.7049 779.8157)"/><rect x="0" y="0" width="7.4097" height="1559.6313" stroke-opacity="0" fill="#d2d2d2" transform="translate(623.592 -252.5083) rotate(30 3.7048 779.8157)"/><rect x="0" y="0" width="51.3809" height="1559.6313" stroke-opacity="0" fill="#d2d2d2" transform="translate(-9.0341 -472.1303) rotate(30 25.6904 779.8157)"/><rect x="0" y="0" width="70.8014" height="1559.6313" stroke-opacity="0" fill="#e5e5e5" transform="translate(1798.4266 -305.3106) rotate(30 35.4007 779.8157)"/><rect x="0" y="0" width="7.1292" height="785.2762" stroke-opacity="0" fill="#e5e5e5" transform="translate(2261.5293 283.6788) rotate(30 3.5646 392.6381)"/><rect x="0" y="0" width="7.1292" height="785.2762" stroke-opacity="0" fill="#e5e5e5" transform="translate(2241.5293 285.045) rotate(30 3.5646 392.6381)"/><rect x="0" y="0" width="7.1292" height="785.2762" stroke-opacity="0" fill="#e5e5e5" transform="translate(2221.5293 285.045) rotate(30 3.5646 392.6381)"/><rect x="0" y="0" width="7.1292" height="785.2762" stroke-opacity="0" fill="#e5e5e5" transform="translate(2231.5293 365.045) rotate(30 3.5646 392.6381)"/><rect x="0" y="0" width="7.1292" height="785.2762" stroke-opacity="0" fill="#e5e5e5" transform="translate(2256.5293 355.045) rotate(30 3.5646 392.6381)"/><rect x="0" y="0" width="9.9253" height="1559.6313" stroke-opacity="0" fill="#d2d2d2" transform="translate(450.3318 -318.1372) rotate(30 4.9626 779.8157)"/><rect x="0" y="0" width="9.9253" height="1559.6313" stroke-opacity="0" fill="#d2d2d2" transform="translate(390.3318 -248.1372) rotate(30 4.9626 779.8157)"/><rect x="0" y="0" width="9.9253" height="1559.6313" stroke-opacity="0" fill="#d2d2d2" transform="translate(383.743 -267.4942) rotate(30 4.9626 779.8157)"/></svg>